# xmcd
#
# Track frame offsets: 
#        150
#        22100
#        46025
#        72455
#        92555
#        115260
#        134117
#        162392
#        188685
#        208365
#
# Disc length: 3139 seconds
#
# Revision: 0
# Processed by: cddbd v1.5.2PL0 Copyright (c) Steve Scherf et al.
# Submitted via: ExactAudioCopy v1.0b3
#
DISCID=940c410a
DTITLE=Nhat Truong - Hai Sac Hoa Ti gon
DYEAR=1994
DGENRE=
TTITLE0=Mot ngay gan day
TTITLE1=Hai sac hoa ti gon
TTITLE2=Bay ngay doi mong
TTITLE3=Loi cho nguoi yeu nho
TTITLE4=Qua con me
TTITLE5=Tinh nghia doi ta chi the thoi
TTITLE6=Tren dinh mua dong
TTITLE7=Dung hoi tai sao
TTITLE8=Tinh yeu thu nhat
TTITLE9=Ben giang dau (Nang chieu 2)
EXTD=
EXTT0=
EXTT1=
EXTT2=
EXTT3=
EXTT4=
EXTT5=
EXTT6=
EXTT7=
EXTT8=
EXTT9=
PLAYORDER=
